<svg width="142" height="37" viewBox="0 0 142 37" fill="none" xmlns="http://www.w3.org/2000/svg">
<g clip-path="url(#clip0_2_1895)">
<path d="M16 37C24.8366 37 32 29.8366 32 21C32 12.1634 24.8366 5 16 5C7.16344 5 0 12.1634 0 21C0 29.8366 7.16344 37 16 37Z" fill="white"/>
<path d="M21.204 13.447C20.369 12.4929 19.9092 11.2679 19.91 10H16.133V25.156C16.1037 25.9759 15.7575 26.7526 15.1672 27.3224C14.5768 27.8922 13.7885 28.2107 12.968 28.211C12.1259 28.2086 11.3189 27.873 10.7234 27.2776C10.128 26.6821 9.79237 25.8751 9.79 25.033C9.79 22.931 11.819 21.354 13.909 22.003V18.14C9.69 17.578 6 20.853 6 25.033C6 29.103 9.373 32 12.954 32C16.792 32 19.909 28.883 19.909 25.033V17.346C21.4404 18.4455 23.2788 19.0353 25.164 19.032V15.256C25.164 15.256 22.867 15.367 21.204 13.447Z" fill="#0A1D39"/>
</g>
<g clip-path="url(#clip1_2_1895)">
<path d="M52.5 37C61.3366 37 68.5 29.8366 68.5 21C68.5 12.1634 61.3366 5 52.5 5C43.6634 5 36.5 12.1634 36.5 21C36.5 29.8366 43.6634 37 52.5 37Z" fill="white"/>
<path d="M65.5 14.6C64.6 15 63.7 15.3 62.7 15.4C63.7 14.8 64.5 13.8 64.9 12.7C63.9 13.3 62.9 13.7 61.8 13.9C60.9 12.9 59.6 12.3 58.2 12.3C55.5 12.3 53.3 14.5 53.3 17.2C53.3 17.6 53.3 18 53.4 18.3C49.2 18.1 45.6 16.1 43.2 13.1C42.7 13.9 42.5 14.7 42.5 15.6C42.5 17.3 43.4 18.8 44.7 19.7C43.9 19.7 43.1 19.5 42.5 19.1V19.2C42.5 21.6 44.2 23.6 46.4 24C46 24.1 45.6 24.2 45.1 24.2C44.8 24.2 44.5 24.2 44.2 24.1C44.8 26.1 46.6 27.5 48.8 27.5C47.1 28.8 45 29.6 42.7 29.6C42.3 29.6 41.9 29.6 41.5 29.5C43.7 30.9 46.3 31.7001 49 31.7001C58.1 31.7001 63 24.2 63 17.7V17.1C64 16.4 64.8 15.5 65.5 14.6Z" fill="#051D3B"/>
</g>
<g clip-path="url(#clip2_2_1895)">
<path d="M89 37C97.8366 37 105 29.8366 105 21C105 12.1634 97.8366 5 89 5C80.1634 5 73 12.1634 73 21C73 29.8366 80.1634 37 89 37Z" fill="white"/>
<path d="M100.8 17.2001C100.8 17.2001 100.6 15.5001 99.8 14.8001C98.9 13.8001 97.9 13.8001 97.4 13.8001C94 13.6001 89 13.6001 89 13.6001C89 13.6001 84 13.6001 80.6 13.8001C80.1 13.9001 79.1 13.9001 78.2 14.8001C77.5 15.5001 77.2 17.2001 77.2 17.2001C77.2 17.2001 77 19.1001 77 21.1001V22.9001C77 24.8001 77.2 26.8001 77.2 26.8001C77.2 26.8001 77.4 28.5001 78.2 29.2001C79.1 30.2001 80.3 30.1001 80.8 30.2001C82.7 30.4001 89 30.4001 89 30.4001C89 30.4001 94 30.4001 97.4 30.1001C97.9 30.0001 98.9 30.0001 99.8 29.1001C100.5 28.4001 100.8 26.7001 100.8 26.7001C100.8 26.7001 101 24.8001 101 22.8001V21.0001C101 19.1001 100.8 17.2001 100.8 17.2001ZM86.5 25.1001V18.4001L93 21.8001L86.5 25.1001Z" fill="#051D3B"/>
</g>
<g clip-path="url(#clip3_2_1895)">
<path d="M125.5 37C134.337 37 141.5 29.8366 141.5 21C141.5 12.1634 134.337 5 125.5 5C116.663 5 109.5 12.1634 109.5 21C109.5 29.8366 116.663 37 125.5 37Z" fill="white"/>
<path d="M122.532 32L122.5 22H118.5V18H122.5V15.5C122.5 11.789 124.798 10 128.11 10C129.695 10 131.058 10.118 131.455 10.17V14.05H129.16C127.36 14.05 127.01 14.906 127.01 16.162V18H132.251L130.251 22H127.01V32H122.532Z" fill="#051D3B"/>
</g>
<defs>
<clipPath id="clip0_2_1895">
<rect width="32" height="32" fill="white" transform="translate(0 5)"/>
</clipPath>
<clipPath id="clip1_2_1895">
<rect width="32" height="32" fill="white" transform="translate(36.5 5)"/>
</clipPath>
<clipPath id="clip2_2_1895">
<rect width="32" height="32" fill="white" transform="translate(73 5)"/>
</clipPath>
<clipPath id="clip3_2_1895">
<rect width="32" height="32" fill="white" transform="translate(109.5 5)"/>
</clipPath>
</defs>
</svg>
