<svg width="32" height="32" viewBox="0 0 32 32" fill="none" xmlns="http://www.w3.org/2000/svg">
<g clip-path="url(#clip0_131_929)">
<path d="M16 32C24.8366 32 32 24.8366 32 16C32 7.16344 24.8366 0 16 0C7.16344 0 0 7.16344 0 16C0 24.8366 7.16344 32 16 32Z" fill="white"/>
<path d="M27.8 12.2C27.8 12.2 27.6 10.5 26.8 9.8C25.9 8.8 24.9 8.8 24.4 8.8C21 8.6 16 8.6 16 8.6C16 8.6 11 8.6 7.6 8.8C7.1 8.9 6.1 8.9 5.2 9.8C4.5 10.5 4.2 12.2 4.2 12.2C4.2 12.2 4 14.1 4 16.1V17.9C4 19.8 4.2 21.8 4.2 21.8C4.2 21.8 4.4 23.5 5.2 24.2C6.1 25.2 7.3 25.1 7.8 25.2C9.7 25.4 16 25.4 16 25.4C16 25.4 21 25.4 24.4 25.1C24.9 25 25.9 25 26.8 24.1C27.5 23.4 27.8 21.7 27.8 21.7C27.8 21.7 28 19.8 28 17.8V16C28 14.1 27.8 12.2 27.8 12.2ZM13.5 20.1V13.4L20 16.8L13.5 20.1Z" fill="#051D3B"/>
</g>
<defs>
<clipPath id="clip0_131_929">
<rect width="32" height="32" fill="white"/>
</clipPath>
</defs>
</svg>
