<svg width="32" height="32" viewBox="0 0 32 32" fill="none" xmlns="http://www.w3.org/2000/svg">
<g clip-path="url(#clip0_131_901)">
<path d="M16 32C24.8366 32 32 24.8366 32 16C32 7.16344 24.8366 0 16 0C7.16344 0 0 7.16344 0 16C0 24.8366 7.16344 32 16 32Z" fill="white"/>
<path d="M21.204 8.447C20.369 7.49288 19.9092 6.26788 19.91 5H16.133V20.156C16.1037 20.9759 15.7575 21.7526 15.1672 22.3224C14.5768 22.8922 13.7885 23.2107 12.968 23.211C12.1259 23.2086 11.3189 22.873 10.7234 22.2776C10.128 21.6821 9.79237 20.8751 9.79 20.033C9.79 17.931 11.819 16.354 13.909 17.003V13.14C9.69 12.578 6 15.853 6 20.033C6 24.103 9.373 27 12.954 27C16.792 27 19.909 23.883 19.909 20.033V12.346C21.4404 13.4455 23.2788 14.0353 25.164 14.032V10.256C25.164 10.256 22.867 10.367 21.204 8.447Z" fill="#0A1D39"/>
</g>
<defs>
<clipPath id="clip0_131_901">
<rect width="32" height="32" fill="white"/>
</clipPath>
</defs>
</svg>
