<svg width="33" height="32" viewBox="0 0 33 32" fill="none" xmlns="http://www.w3.org/2000/svg">
<g clip-path="url(#clip0_131_912)">
<path d="M16.5 32C25.3366 32 32.5 24.8366 32.5 16C32.5 7.16344 25.3366 0 16.5 0C7.66344 0 0.5 7.16344 0.5 16C0.5 24.8366 7.66344 32 16.5 32Z" fill="white"/>
<path d="M29.5 9.6C28.6 10 27.7 10.3 26.7 10.4C27.7 9.8 28.5 8.8 28.9 7.7C27.9 8.3 26.9 8.7 25.8 8.9C24.9 7.9 23.6 7.3 22.2 7.3C19.5 7.3 17.3 9.5 17.3 12.2C17.3 12.6 17.3 13 17.4 13.3C13.2 13.1 9.6 11.1 7.2 8.1C6.7 8.9 6.5 9.7 6.5 10.6C6.5 12.3 7.4 13.8 8.7 14.7C7.9 14.7 7.1 14.5 6.5 14.1V14.2C6.5 16.6 8.2 18.6 10.4 19C10 19.1 9.6 19.2 9.1 19.2C8.8 19.2 8.5 19.2 8.2 19.1C8.8 21.1 10.6 22.5 12.8 22.5C11.1 23.8 9 24.6 6.7 24.6C6.3 24.6 5.9 24.6 5.5 24.5C7.7 25.9 10.3 26.7 13 26.7C22.1 26.7 27 19.2 27 12.7V12.1C28 11.4 28.8 10.5 29.5 9.6Z" fill="#051D3B"/>
</g>
<defs>
<clipPath id="clip0_131_912">
<rect width="32" height="32" fill="white" transform="translate(0.5)"/>
</clipPath>
</defs>
</svg>
