<svg width="33" height="32" viewBox="0 0 33 32" fill="none" xmlns="http://www.w3.org/2000/svg">
<g clip-path="url(#clip0_131_945)">
<path d="M16.5 32C25.3366 32 32.5 24.8366 32.5 16C32.5 7.16344 25.3366 0 16.5 0C7.66344 0 0.5 7.16344 0.5 16C0.5 24.8366 7.66344 32 16.5 32Z" fill="white"/>
<path d="M13.532 27L13.5 17H9.5V13H13.5V10.5C13.5 6.789 15.798 5 19.11 5C20.695 5 22.058 5.118 22.455 5.17V9.05H20.16C18.36 9.05 18.01 9.906 18.01 11.162V13H23.251L21.251 17H18.01V27H13.532Z" fill="#051D3B"/>
</g>
<defs>
<clipPath id="clip0_131_945">
<rect width="32" height="32" fill="white" transform="translate(0.5)"/>
</clipPath>
</defs>
</svg>
